<svg width="1096" height="1096" viewBox="0 0 1096 1096" fill="none" xmlns="http://www.w3.org/2000/svg">
<g clip-path="url(#clip0_721_2)">
<rect x="36" y="36" width="1024" height="1024" rx="180" fill="white"/>
<path d="M265.76 227.12L260 232.88C289.52 256.64 324.8 297.68 336.32 333.68C404 371.12 445.76 240.08 265.76 227.12ZM213.92 388.4L208.16 394.16C236.24 415.76 267.92 453.92 276.56 488.48C341.36 529.52 388.88 403.52 213.92 388.4ZM257.12 675.68C249.92 675.68 225.44 675.68 225.44 675.68V690.8C240.56 691.52 252.08 694.4 261.44 700.88C277.28 712.4 281.6 774.32 269.36 847.76C273.68 872.96 287.36 884.48 301.76 884.48C332 884.48 352.88 862.16 354.32 829.04C356.48 767.84 330.56 739.76 329.84 703.76C329.12 685.76 334.16 661.28 339.92 638.96C349.28 602.96 400.4 443.12 427.76 356.72L414.8 353.84C291.68 634.64 291.68 634.64 277.28 661.28C270.08 675.68 266.48 675.68 257.12 675.68ZM598.4 220.64V295.52H432.8L438.56 316.4H598.4V374.72H450.8L456.56 395.6H598.4V460.4H412.64L418.4 481.28H860.48C870.56 481.28 878.48 477.68 879.92 469.76C852.56 446 808.64 412.88 808.64 412.88L769.76 460.4H666.08V395.6H831.68C841.76 395.6 848.96 392 850.4 384.08C825.2 361.04 783.44 327.92 783.44 327.92L746.72 374.72H666.08V316.4H843.92C854 316.4 861.2 312.8 863.36 304.88C836.72 281.12 794.24 249.44 794.24 249.44L756.8 295.52H666.08V250.16C684.08 246.56 690.56 239.36 692 229.28L598.4 220.64ZM740.24 642.56V710.96H537.92V642.56H740.24ZM740.24 621.68H537.92V556.88H740.24V621.68ZM472.4 536.72V883.76H482.48C511.28 883.76 537.92 867.92 537.92 860.72V731.84H740.24V798.08C740.24 808.16 736.64 813.2 723.68 813.2C707.12 813.2 625.76 808.16 625.76 808.16V818.24C663.2 824 681.2 831.2 692.72 840.56C704.24 849.92 708.56 865.76 710.72 885.2C795.68 878 806.48 850.64 806.48 806V569.12C821.6 566.96 832.4 559.76 836.72 554.72L764 499.28L732.32 536.72H542.24L472.4 507.92V536.72Z" fill="black"/>
</g>
<rect x="18" y="18" width="1060" height="1060" rx="198" stroke="black" stroke-opacity="0.12" stroke-width="36"/>
<defs>
<clipPath id="clip0_721_2">
<rect x="36" y="36" width="1024" height="1024" rx="180" fill="white"/>
</clipPath>
</defs>
</svg>
