<svg width="1024" height="1024" viewBox="0 0 1024 1024" fill="none" xmlns="http://www.w3.org/2000/svg">
    <g clip-path="url(#clip0)">
        <rect width="1024" height="1024" rx="180" fill="white" />
        <path
            d="M227.6 201.92C260.72 222.08 301.76 260.24 313.28 291.92C356.48 314.96 374.48 224.24 234.08 194.72L227.6 201.92ZM177.2 368.24C210.32 384.8 250.64 419.36 263.6 448.16C306.08 469.76 321.2 381.92 183.68 360.32L177.2 368.24ZM370.88 324.32C256.4 604.4 256.4 604.4 244.88 628.88C238.4 643.28 235.52 644 228.32 644H197.36V660.56C213.2 662 222.56 663.44 231.2 669.92C246.32 680 251.36 732.56 242.72 805.28C242.72 826.16 247.76 840.56 259.28 840.56C278.72 840.56 289.52 823.28 290.96 795.2C293.84 738.32 276.56 702.32 276.56 672.8C275.84 655.52 280.88 633.92 286.64 613.04C296.72 580.64 355.76 415.76 385.28 327.92L370.88 324.32ZM475.28 682.16V613.04H727.28V682.16H475.28ZM727.28 527.36V591.44H475.28V527.36H727.28ZM720.08 507.2H479.6L444.32 489.2V841.28H450.08C463.76 841.28 475.28 832.64 475.28 829.04V703.76H727.28V780.08C727.28 791.6 723.68 795.92 708.56 795.92C692.72 795.92 610.64 789.44 610.64 789.44V801.68C645.2 805.28 666.08 809.6 677.6 816.08C687.68 821.84 692 831.2 694.16 841.28C752.48 834.8 758.96 813.92 758.96 785.12V535.28C773.36 533.12 786.32 526.64 790.64 521.6L738.8 482.72L720.08 507.2ZM753.92 428H610.64V364.64H780.56C790.64 364.64 797.12 361.04 798.56 353.12C779.12 334.4 748.16 309.2 748.16 309.2L720.08 343.04H610.64V285.44H797.84C807.92 285.44 814.4 281.84 816.56 273.92C796.4 254.48 765.44 230 765.44 230L738.08 263.84H610.64V220.64C627.92 217.76 635.84 210.56 637.28 200.48L578.96 193.28V263.84H401.12L406.88 285.44H578.96V343.04H416.96L422 364.64H578.96V428H377.36L383.12 448.88H814.4C824.48 448.88 831.68 445.28 833.12 437.36C812.96 418.64 782 393.44 782 393.44L753.92 428Z"
            fill="black" />
    </g>
    <defs>
        <clipPath id="clip0">
            <rect width="1024" height="1024" rx="180" fill="white" />
        </clipPath>
    </defs>
</svg>