<svg width="2972" height="1024" viewBox="0 0 2972 1024" fill="none" xmlns="http://www.w3.org/2000/svg">
<g clip-path="url(#clip0_410_5)">
<rect width="1024" height="1024" rx="180" fill="white"/>
<path d="M227.6 201.92C260.72 222.08 301.76 260.24 313.28 291.92C356.48 314.96 374.48 224.24 234.08 194.72L227.6 201.92ZM177.2 368.24C210.32 384.8 250.64 419.36 263.6 448.16C306.08 469.76 321.2 381.92 183.68 360.32L177.2 368.24ZM370.88 324.32C256.4 604.4 256.4 604.4 244.88 628.88C238.4 643.28 235.52 644 228.32 644H197.36V660.56C213.2 662 222.56 663.44 231.2 669.92C246.32 680 251.36 732.56 242.72 805.28C242.72 826.16 247.76 840.56 259.28 840.56C278.72 840.56 289.52 823.28 290.96 795.2C293.84 738.32 276.56 702.32 276.56 672.8C275.84 655.52 280.88 633.92 286.64 613.04C296.72 580.64 355.76 415.76 385.28 327.92L370.88 324.32ZM475.28 682.16V613.04H727.28V682.16H475.28ZM727.28 527.36V591.44H475.28V527.36H727.28ZM720.08 507.2H479.6L444.32 489.2V841.28H450.08C463.76 841.28 475.28 832.64 475.28 829.04V703.76H727.28V780.08C727.28 791.6 723.68 795.92 708.56 795.92C692.72 795.92 610.64 789.44 610.64 789.44V801.68C645.2 805.28 666.08 809.6 677.6 816.08C687.68 821.84 692 831.2 694.16 841.28C752.48 834.8 758.96 813.92 758.96 785.12V535.28C773.36 533.12 786.32 526.64 790.64 521.6L738.8 482.72L720.08 507.2ZM753.92 428H610.64V364.64H780.56C790.64 364.64 797.12 361.04 798.56 353.12C779.12 334.4 748.16 309.2 748.16 309.2L720.08 343.04H610.64V285.44H797.84C807.92 285.44 814.4 281.84 816.56 273.92C796.4 254.48 765.44 230 765.44 230L738.08 263.84H610.64V220.64C627.92 217.76 635.84 210.56 637.28 200.48L578.96 193.28V263.84H401.12L406.88 285.44H578.96V343.04H416.96L422 364.64H578.96V428H377.36L383.12 448.88H814.4C824.48 448.88 831.68 445.28 833.12 437.36C812.96 418.64 782 393.44 782 393.44L753.92 428Z" fill="black"/>
</g>
<path d="M1407.08 268.74C1430.3 286.02 1457.84 315.72 1466.48 342.18C1511.84 366.48 1538.3 277.92 1411.4 264.42L1407.08 268.74ZM1368.74 390.78C1390.34 406.44 1416.26 433.98 1423.82 458.82C1467.56 484.2 1495.1 398.88 1373.6 385.92L1368.74 390.78ZM1521.02 360C1430.3 570.6 1430.3 570.6 1420.58 589.5C1414.64 600.3 1412.48 600.84 1406 600.84H1381.7V612.18C1393.58 613.26 1401.68 614.88 1408.7 620.28C1420.58 628.38 1423.82 672.66 1415.72 727.2C1417.88 745.02 1425.98 754.2 1435.7 754.2C1456.76 754.2 1469.72 738.54 1470.8 715.32C1472.96 670.5 1455.14 647.28 1454.6 622.44C1454.06 608.94 1457.84 591.12 1462.16 574.38C1469.72 548.46 1509.14 426.96 1530.74 362.16L1521.02 360ZM1608.5 627.84V576H1771.58V627.84H1608.5ZM1771.58 512.28V560.88H1608.5V512.28H1771.58ZM1765.64 497.16H1611.74L1567.46 477.72V754.2H1573.94C1592.3 754.2 1608.5 743.94 1608.5 739.62V643.5H1771.58V695.34C1771.58 703.44 1768.88 706.68 1758.62 706.68C1746.2 706.68 1685.18 702.9 1685.18 702.9V711C1712.18 714.78 1726.76 719.64 1735.4 726.12C1744.04 732.6 1746.74 742.32 1748.9 754.74C1806.68 749.34 1813.16 730.98 1813.16 700.74V520.92C1824.5 518.76 1833.14 513.9 1836.38 509.58L1786.7 471.78L1765.64 497.16ZM1793.18 438.84H1706.24V390.78H1831.52C1839.08 390.78 1844.48 388.08 1845.56 382.14C1827.74 365.4 1798.58 343.26 1798.58 343.26L1773.2 375.12H1706.24V331.38H1842.32C1849.88 331.38 1854.74 328.68 1856.36 322.74C1838 306 1808.84 283.86 1808.84 283.86L1782.38 315.18H1706.24V282.24C1719.74 279.54 1724.6 274.14 1725.68 266.58L1663.58 260.64V315.18H1537.22L1541.54 331.38H1663.58V375.12H1549.64L1553.96 390.78H1663.58V438.84H1521.02L1525.34 455.04H1854.2C1862.3 455.04 1867.16 452.34 1868.24 446.4C1849.88 429.12 1819.64 406.44 1819.64 406.44L1793.18 438.84ZM2135 256.32C2152.82 270.9 2174.42 296.82 2181.98 317.88C2225.72 343.26 2256.5 260.64 2139.86 252L2135 256.32ZM2154.44 584.1V539.28H2211.14V584.1H2154.44ZM2154.44 481.5H2211.14V523.62H2154.44V481.5ZM2154.44 422.1H2211.14V465.84H2154.44V422.1ZM2306.18 481.5V523.62H2250.02V481.5H2306.18ZM2306.18 584.1H2250.02V539.28H2306.18V584.1ZM2306.18 599.76V617.58H2312.66C2325.62 617.58 2345.06 608.94 2345.06 605.7V539.28H2399.06C2406.08 539.28 2411.48 536.58 2412.56 530.64C2399.06 515.52 2375.84 495 2375.84 495L2356.4 523.62H2345.06V486.9C2354.24 485.28 2361.8 480.96 2365.04 477.72L2321.84 444.24L2301.32 465.84H2250.02V422.1H2383.4C2390.96 422.1 2395.82 419.4 2397.44 413.46C2379.62 396.72 2351 375.12 2351 375.12L2325.62 405.9H2238.68C2256.5 392.4 2274.32 377.28 2286.74 364.86C2298.62 365.94 2305.1 362.16 2307.8 355.68L2253.26 338.94H2397.98C2405.54 338.94 2410.4 336.24 2412.02 330.3C2392.58 311.94 2360.72 286.56 2360.72 286.56L2332.1 323.28H2010.8L1960.58 303.3V462.6C1960.58 560.88 1956.26 667.26 1908.74 752.58L1916.3 757.44C1998.92 674.28 2003.78 554.4 2003.78 462.06V338.94H2247.32C2240.84 358.92 2231.12 386.46 2222.48 405.9H2139.32C2163.08 398.34 2166.32 351.36 2085.86 342.72L2080.46 347.04C2095.04 360 2112.86 383.22 2118.26 402.12C2120.96 403.74 2124.2 405.36 2126.9 405.9H2014.04L2018.9 422.1H2115.56V465.84H2034.02L2038.88 481.5H2115.56V523.62H2013.5L2017.82 539.28H2115.56V584.1H2032.4L2037.26 599.76H2098.28C2070.2 648.9 2025.38 695.88 1971.92 728.82L1977.32 737.46C2032.4 713.7 2079.92 681.3 2115.56 642.42V754.2H2122.04C2141.48 754.2 2154.44 745.02 2154.44 742.32V599.76H2211.14V754.2H2217.62C2237.6 754.2 2250.02 745.02 2250.02 742.32V605.7C2279.18 666.18 2325.62 712.08 2379.62 739.08C2384.48 718.56 2396.9 705.6 2413.64 701.82L2414.72 696.42C2358.56 680.22 2297 645.12 2261.36 599.76H2306.18ZM2934.74 327.6C2942.3 327.6 2947.16 324.9 2948.78 318.96C2930.42 301.68 2900.18 277.38 2900.18 277.38L2874.26 311.4H2795.42L2799.74 327.6H2934.74ZM2551.34 256.86C2530.82 297.9 2488.7 360 2448.74 401.04L2455.22 406.98C2505.98 375.12 2556.74 328.14 2585.9 293.58C2598.32 296.28 2603.18 294.12 2606.96 288.18L2551.34 256.86ZM2551.88 367.02C2530.82 418.32 2487.08 498.78 2445.5 552.78L2451.44 558.72C2471.96 541.98 2491.94 522.54 2510.84 502.56V754.74H2517.86C2535.68 754.74 2552.42 743.94 2552.96 739.62V485.28C2562.68 484.2 2567.54 480.42 2568.62 476.1L2542.7 465.84C2561.06 443.7 2577.26 422.1 2589.14 403.74C2602.1 405.9 2606.96 403.2 2610.2 397.26L2551.88 367.02ZM2817.02 625.68C2780.3 631.62 2743.58 637.56 2710.1 642.96V567.9H2796.5C2804.06 567.9 2809.46 565.2 2811.08 559.26C2793.26 542.52 2764.64 519.84 2764.64 519.84L2739.8 552.24H2710.1V493.38C2720.9 491.22 2724.68 486.9 2725.76 480.42L2667.98 475.02V552.24H2589.14L2593.46 567.9H2667.98V649.44C2628.02 655.92 2594.54 660.24 2574.02 662.4L2602.1 714.78C2608.04 713.16 2612.9 708.84 2615.6 702.36C2707.94 673.2 2772.74 650.52 2818.64 632.7L2817.02 625.68ZM2880.74 427.5H2791.1L2794.34 439.92C2780.3 428.04 2766.8 416.7 2766.8 416.7L2740.88 449.64H2709.56V364.86H2787.86C2795.42 364.86 2800.28 362.16 2801.9 356.76C2784.62 339.48 2756.54 316.8 2756.54 316.8L2731.7 349.2H2709.56V289.26C2721.98 287.1 2726.3 282.24 2727.38 275.22L2667.98 269.82V349.2H2591.3L2595.62 364.86H2667.98V449.64H2581.04L2585.36 465.3H2798.66C2806.22 465.3 2811.62 462.6 2812.7 456.66C2808.38 452.34 2802.98 448.02 2798.12 443.16H2856.44V691.02C2856.44 698.58 2853.74 701.28 2843.48 701.28C2831.6 701.28 2770.58 697.5 2770.58 697.5V705.06C2798.12 708.84 2812.16 714.24 2821.34 721.8C2829.44 728.28 2833.22 739.62 2833.76 753.12C2890.46 747.72 2898.56 725.04 2898.56 692.64V443.16H2943.38C2950.94 443.16 2955.8 440.46 2957.42 434.52C2939.06 416.7 2907.74 392.4 2907.74 392.4L2880.74 427.5Z" fill="black"/>
<defs>
<clipPath id="clip0_410_5">
<rect width="1024" height="1024" rx="180" fill="white"/>
</clipPath>
</defs>
</svg>
