<svg width="3484" height="1035" viewBox="0 0 3484 1035" fill="none" xmlns="http://www.w3.org/2000/svg">
<g clip-path="url(#clip0_504_75)">
<g clip-path="url(#clip1_504_75)">
<rect y="5.5" width="1024" height="1024" rx="180" fill="white"/>
<path d="M227.6 207.42C260.72 227.58 301.76 265.74 313.28 297.42C356.48 320.46 374.48 229.74 234.08 200.22L227.6 207.42ZM177.2 373.74C210.32 390.3 250.64 424.86 263.6 453.66C306.08 475.26 321.2 387.42 183.68 365.82L177.2 373.74ZM370.88 329.82C256.4 609.9 256.4 609.9 244.88 634.38C238.4 648.78 235.52 649.5 228.32 649.5H197.36V666.06C213.2 667.5 222.56 668.94 231.2 675.42C246.32 685.5 251.36 738.06 242.72 810.78C242.72 831.66 247.76 846.06 259.28 846.06C278.72 846.06 289.52 828.78 290.96 800.7C293.84 743.82 276.56 707.82 276.56 678.3C275.84 661.02 280.88 639.42 286.64 618.54C296.72 586.14 355.76 421.26 385.28 333.42L370.88 329.82ZM475.28 687.66V618.54H727.28V687.66H475.28ZM727.28 532.86V596.94H475.28V532.86H727.28ZM720.08 512.7H479.6L444.32 494.7V846.78H450.08C463.76 846.78 475.28 838.14 475.28 834.54V709.26H727.28V785.58C727.28 797.1 723.68 801.42 708.56 801.42C692.72 801.42 610.64 794.94 610.64 794.94V807.18C645.2 810.78 666.08 815.1 677.6 821.58C687.68 827.34 692 836.7 694.16 846.78C752.48 840.3 758.96 819.42 758.96 790.62V540.78C773.36 538.62 786.32 532.14 790.64 527.1L738.8 488.22L720.08 512.7ZM753.92 433.5H610.64V370.14H780.56C790.64 370.14 797.12 366.54 798.56 358.62C779.12 339.9 748.16 314.7 748.16 314.7L720.08 348.54H610.64V290.94H797.84C807.92 290.94 814.4 287.34 816.56 279.42C796.4 259.98 765.44 235.5 765.44 235.5L738.08 269.34H610.64V226.14C627.92 223.26 635.84 216.06 637.28 205.98L578.96 198.78V269.34H401.12L406.88 290.94H578.96V348.54H416.96L422 370.14H578.96V433.5H377.36L383.12 454.38H814.4C824.48 454.38 831.68 450.78 833.12 442.86C812.96 424.14 782 398.94 782 398.94L753.92 433.5Z" fill="black"/>
</g>
<path d="M1457.44 215.32C1488.4 238.36 1525.12 277.96 1536.64 313.24C1597.12 345.64 1632.4 227.56 1463.2 209.56L1457.44 215.32ZM1406.32 378.04C1435.12 398.92 1469.68 435.64 1479.76 468.76C1538.08 502.6 1574.8 388.84 1412.8 371.56L1406.32 378.04ZM1609.36 337C1488.4 617.8 1488.4 617.8 1475.44 643C1467.52 657.4 1464.64 658.12 1456 658.12H1423.6V673.24C1439.44 674.68 1450.24 676.84 1459.6 684.04C1475.44 694.84 1479.76 753.88 1468.96 826.6C1471.84 850.36 1482.64 862.6 1495.6 862.6C1523.68 862.6 1540.96 841.72 1542.4 810.76C1545.28 751 1521.52 720.04 1520.8 686.92C1520.08 668.92 1525.12 645.16 1530.88 622.84C1540.96 588.28 1593.52 426.28 1622.32 339.88L1609.36 337ZM1726 694.12V625H1943.44V694.12H1726ZM1943.44 540.04V604.84H1726V540.04H1943.44ZM1935.52 519.88H1730.32L1671.28 493.96V862.6H1679.92C1704.4 862.6 1726 848.92 1726 843.16V715H1943.44V784.12C1943.44 794.92 1939.84 799.24 1926.16 799.24C1909.6 799.24 1828.24 794.2 1828.24 794.2V805C1864.24 810.04 1883.68 816.52 1895.2 825.16C1906.72 833.8 1910.32 846.76 1913.2 863.32C1990.24 856.12 1998.88 831.64 1998.88 791.32V551.56C2014 548.68 2025.52 542.2 2029.84 536.44L1963.6 486.04L1935.52 519.88ZM1972.24 442.12H1856.32V378.04H2023.36C2033.44 378.04 2040.64 374.44 2042.08 366.52C2018.32 344.2 1979.44 314.68 1979.44 314.68L1945.6 357.16H1856.32V298.84H2037.76C2047.84 298.84 2054.32 295.24 2056.48 287.32C2032 265 1993.12 235.48 1993.12 235.48L1957.84 277.24H1856.32V233.32C1874.32 229.72 1880.8 222.52 1882.24 212.44L1799.44 204.52V277.24H1630.96L1636.72 298.84H1799.44V357.16H1647.52L1653.28 378.04H1799.44V442.12H1609.36L1615.12 463.72H2053.6C2064.4 463.72 2070.88 460.12 2072.32 452.2C2047.84 429.16 2007.52 398.92 2007.52 398.92L1972.24 442.12ZM2428 198.76C2451.76 218.2 2480.56 252.76 2490.64 280.84C2548.96 314.68 2590 204.52 2434.48 193L2428 198.76ZM2453.92 635.8V576.04H2529.52V635.8H2453.92ZM2453.92 499H2529.52V555.16H2453.92V499ZM2453.92 419.8H2529.52V478.12H2453.92V419.8ZM2656.24 499V555.16H2581.36V499H2656.24ZM2656.24 635.8H2581.36V576.04H2656.24V635.8ZM2656.24 656.68V680.44H2664.88C2682.16 680.44 2708.08 668.92 2708.08 664.6V576.04H2780.08C2789.44 576.04 2796.64 572.44 2798.08 564.52C2780.08 544.36 2749.12 517 2749.12 517L2723.2 555.16H2708.08V506.2C2720.32 504.04 2730.4 498.28 2734.72 493.96L2677.12 449.32L2649.76 478.12H2581.36V419.8H2759.2C2769.28 419.8 2775.76 416.2 2777.92 408.28C2754.16 385.96 2716 357.16 2716 357.16L2682.16 398.2H2566.24C2590 380.2 2613.76 360.04 2630.32 343.48C2646.16 344.92 2654.8 339.88 2658.4 331.24L2585.68 308.92H2778.64C2788.72 308.92 2795.2 305.32 2797.36 297.4C2771.44 272.92 2728.96 239.08 2728.96 239.08L2690.8 288.04H2262.4L2195.44 261.4V473.8C2195.44 604.84 2189.68 746.68 2126.32 860.44L2136.4 866.92C2246.56 756.04 2253.04 596.2 2253.04 473.08V308.92H2577.76C2569.12 335.56 2556.16 372.28 2544.64 398.2H2433.76C2465.44 388.12 2469.76 325.48 2362.48 313.96L2355.28 319.72C2374.72 337 2398.48 367.96 2405.68 393.16C2409.28 395.32 2413.6 397.48 2417.2 398.2H2266.72L2273.2 419.8H2402.08V478.12H2293.36L2299.84 499H2402.08V555.16H2266L2271.76 576.04H2402.08V635.8H2291.2L2297.68 656.68H2379.04C2341.6 722.2 2281.84 784.84 2210.56 828.76L2217.76 840.28C2291.2 808.6 2354.56 765.4 2402.08 713.56V862.6H2410.72C2436.64 862.6 2453.92 850.36 2453.92 846.76V656.68H2529.52V862.6H2538.16C2564.8 862.6 2581.36 850.36 2581.36 846.76V664.6C2620.24 745.24 2682.16 806.44 2754.16 842.44C2760.64 815.08 2777.2 797.8 2799.52 792.76L2800.96 785.56C2726.08 763.96 2644 717.16 2596.48 656.68H2656.24ZM3494.32 293.8C3504.4 293.8 3510.88 290.2 3513.04 282.28C3488.56 259.24 3448.24 226.84 3448.24 226.84L3413.68 272.2H3308.56L3314.32 293.8H3494.32ZM2983.12 199.48C2955.76 254.2 2899.6 337 2846.32 391.72L2854.96 399.64C2922.64 357.16 2990.32 294.52 3029.2 248.44C3045.76 252.04 3052.24 249.16 3057.28 241.24L2983.12 199.48ZM2983.84 346.36C2955.76 414.76 2897.44 522.04 2842 594.04L2849.92 601.96C2877.28 579.64 2903.92 553.72 2929.12 527.08V863.32H2938.48C2962.24 863.32 2984.56 848.92 2985.28 843.16V504.04C2998.24 502.6 3004.72 497.56 3006.16 491.8L2971.6 478.12C2996.08 448.6 3017.68 419.8 3033.52 395.32C3050.8 398.2 3057.28 394.6 3061.6 386.68L2983.84 346.36ZM3337.36 691.24C3288.4 699.16 3239.44 707.08 3194.8 714.28V614.2H3310C3320.08 614.2 3327.28 610.6 3329.44 602.68C3305.68 580.36 3267.52 550.12 3267.52 550.12L3234.4 593.32H3194.8V514.84C3209.2 511.96 3214.24 506.2 3215.68 497.56L3138.64 490.36V593.32H3033.52L3039.28 614.2H3138.64V722.92C3085.36 731.56 3040.72 737.32 3013.36 740.2L3050.8 810.04C3058.72 807.88 3065.2 802.12 3068.8 793.48C3191.92 754.6 3278.32 724.36 3339.52 700.6L3337.36 691.24ZM3422.32 427H3302.8L3307.12 443.56C3288.4 427.72 3270.4 412.6 3270.4 412.6L3235.84 456.52H3194.08V343.48H3298.48C3308.56 343.48 3315.04 339.88 3317.2 332.68C3294.16 309.64 3256.72 279.4 3256.72 279.4L3223.6 322.6H3194.08V242.68C3210.64 239.8 3216.4 233.32 3217.84 223.96L3138.64 216.76V322.6H3036.4L3042.16 343.48H3138.64V456.52H3022.72L3028.48 477.4H3312.88C3322.96 477.4 3330.16 473.8 3331.6 465.88C3325.84 460.12 3318.64 454.36 3312.16 447.88H3389.92V778.36C3389.92 788.44 3386.32 792.04 3372.64 792.04C3356.8 792.04 3275.44 787 3275.44 787V797.08C3312.16 802.12 3330.88 809.32 3343.12 819.4C3353.92 828.04 3358.96 843.16 3359.68 861.16C3435.28 853.96 3446.08 823.72 3446.08 780.52V447.88H3505.84C3515.92 447.88 3522.4 444.28 3524.56 436.36C3500.08 412.6 3458.32 380.2 3458.32 380.2L3422.32 427Z" fill="white"/>
</g>
<defs>
<clipPath id="clip0_504_75">
<rect width="3484" height="1035" fill="white"/>
</clipPath>
<clipPath id="clip1_504_75">
<rect y="5.5" width="1024" height="1024" rx="180" fill="white"/>
</clipPath>
</defs>
</svg>
